<svg xmlns="http://www.w3.org/2000/svg" width="19" height="16" viewBox="0 0 19 16">
  <path id="_7658986_wechat_brand_assets_messenger_china_icon" data-name="7658986_wechat_brand_assets_messenger_china_icon" d="M8.9,15.681a4.566,4.566,0,0,1-1.727-.328L4.6,16.925l.753-2.693A4.89,4.89,0,0,1,3,10.207C3,7.331,5.879,5,9.431,5c3.443,0,6.254,2.191,6.423,4.944q-.109,0-.22,0c-2.964,0-5.366,1.957-5.366,4.37a3.611,3.611,0,0,0,.154,1.042,5.272,5.272,0,0,0,5.212,3.328,6.506,6.506,0,0,0,1.551-.185L19.7,20l-.689-2.292A4.116,4.116,0,0,0,21,14.311,4.451,4.451,0,0,0,17.76,10.3" transform="translate(-2.5 -4.5)" fill="none" stroke="#000" stroke-linecap="round" stroke-linejoin="round" stroke-width="1"/>
</svg>
