<svg xmlns="http://www.w3.org/2000/svg" width="1344.177" height="252.739" viewBox="0 0 1344.177 252.739">
  <path id="LAGUNA" d="M534.819-246.847a156.412,156.412,0,0,1,19.06,1.141,137.425,137.425,0,0,1,17.969,3.425,99.818,99.818,0,0,1,16.512,5.885,90.185,90.185,0,0,1,14.657,8.514,83.358,83.358,0,0,1,12.629,11.146,89.851,89.851,0,0,1,10.421,13.767,84.9,84.9,0,0,1,7.84,16.653,114.911,114.911,0,0,1,4.866,19.759l.092.578H605.841l-.071-.416a72.019,72.019,0,0,0-3.346-12.759,55.356,55.356,0,0,0-5.343-10.813,58.21,58.21,0,0,0-7.1-8.98,55.012,55.012,0,0,0-8.6-7.222,69.837,69.837,0,0,0-21.248-9.535,98.025,98.025,0,0,0-25.314-3.184,89.42,89.42,0,0,0-20.233,2.177,65.453,65.453,0,0,0-17.1,6.521A77.975,77.975,0,0,0,483.34-200.1a74.5,74.5,0,0,0-11.3,12.846A94.908,94.908,0,0,0,463.452-172a107.981,107.981,0,0,0-6,17.275,149.6,149.6,0,0,0-3.527,18.515,152.549,152.549,0,0,0-1.176,18.936A125.543,125.543,0,0,0,454.1-98.857a118.541,118.541,0,0,0,4.027,17.66,100.5,100.5,0,0,0,6.622,16.263,90.047,90.047,0,0,0,9.132,14.243A76.994,76.994,0,0,0,485.472-38.8,79.378,79.378,0,0,0,499.5-29.595a68.052,68.052,0,0,0,16.434,5.9,87.163,87.163,0,0,0,18.89,1.968,99.306,99.306,0,0,0,17.687-1.508,74.836,74.836,0,0,0,15.483-4.519,74.717,74.717,0,0,0,13.265-7.155,66.283,66.283,0,0,0,11-9.407,68.237,68.237,0,0,0,8.656-11.458,72.981,72.981,0,0,0,6.234-13.3,77.047,77.047,0,0,0,3.6-14.774,87.534,87.534,0,0,0,.772-15.4H534.656v-27.96H641.137V.5h-21.1l-8.256-29.39a84.891,84.891,0,0,1-15.324,15.51A78.972,78.972,0,0,1,577.128-2.4a120.691,120.691,0,0,1-21.066,6.218,110.711,110.711,0,0,1-21.243,2.074A127.257,127.257,0,0,1,509.19,3.4,102.66,102.66,0,0,1,486.416-4.1,114.549,114.549,0,0,1,466.7-15.817a107.15,107.15,0,0,1-16.506-15.194A115.986,115.986,0,0,1,437.078-49.2a122.276,122.276,0,0,1-9.559-20.726,135.7,135.7,0,0,1-5.835-22.409,138.849,138.849,0,0,1-1.945-23.253,180.188,180.188,0,0,1,1.816-25.726,165.384,165.384,0,0,1,5.451-24.465,133.118,133.118,0,0,1,9.049-22.368,117.523,117.523,0,0,1,12.607-19.418,103.3,103.3,0,0,1,16.17-16.128,110.3,110.3,0,0,1,19.72-12.484,98.494,98.494,0,0,1,23.329-8A130.293,130.293,0,0,1,534.819-246.847Zm102.872,79.869a113.385,113.385,0,0,0-4.729-19.008,83.9,83.9,0,0,0-7.746-16.457,88.835,88.835,0,0,0-10.3-13.614,82.358,82.358,0,0,0-12.477-11.012,89.191,89.191,0,0,0-14.494-8.42,98.822,98.822,0,0,0-16.346-5.826,136.418,136.418,0,0,0-17.837-3.4,155.379,155.379,0,0,0-18.937-1.134,129.3,129.3,0,0,0-26.73,2.643A97.5,97.5,0,0,0,485-235.284a109.273,109.273,0,0,0-19.541,12.37,102.3,102.3,0,0,0-16.013,15.971,116.519,116.519,0,0,0-12.5,19.253,132.1,132.1,0,0,0-8.98,22.2,164.358,164.358,0,0,0-5.418,24.316,179.183,179.183,0,0,0-1.806,25.582,137.84,137.84,0,0,0,1.931,23.085,134.689,134.689,0,0,0,5.792,22.243,121.279,121.279,0,0,0,9.481,20.556,114.987,114.987,0,0,0,13,18.035A106.156,106.156,0,0,0,467.3-16.62,113.545,113.545,0,0,0,486.84-5a101.647,101.647,0,0,0,22.552,7.419,126.252,126.252,0,0,0,25.427,2.475A109.7,109.7,0,0,0,555.87,2.837,119.68,119.68,0,0,0,576.76-3.329,77.97,77.97,0,0,0,595.847-14.17a84.235,84.235,0,0,0,15.745-16.123l.607-.81L620.8-.5h19.341V-126.212H535.656v25.96h76.816l.02.48a88.765,88.765,0,0,1-.763,16.056,78.047,78.047,0,0,1-3.646,14.966,74,74,0,0,1-6.32,13.487,69.249,69.249,0,0,1-8.783,11.626,67.293,67.293,0,0,1-11.162,9.549,75.707,75.707,0,0,1-13.443,7.252,75.832,75.832,0,0,1-15.69,4.58,100.324,100.324,0,0,1-17.866,1.525,88.156,88.156,0,0,1-19.107-1.992,69.045,69.045,0,0,1-16.676-5.983,80.381,80.381,0,0,1-14.2-9.326,77.988,77.988,0,0,1-11.744-12.041,91.034,91.034,0,0,1-9.234-14.4A101.522,101.522,0,0,1,457.169-80.9a119.527,119.527,0,0,1-4.061-17.809,126.532,126.532,0,0,1-1.354-18.566,153.581,153.581,0,0,1,1.183-19.061,150.62,150.62,0,0,1,3.55-18.639,109.009,109.009,0,0,1,6.052-17.436,95.914,95.914,0,0,1,8.681-15.414,75.492,75.492,0,0,1,11.45-13.019A78.979,78.979,0,0,1,497-211.061a66.444,66.444,0,0,1,17.36-6.622,90.419,90.419,0,0,1,20.46-2.2,99.022,99.022,0,0,1,25.573,3.218,70.829,70.829,0,0,1,21.551,9.674,56.011,56.011,0,0,1,8.756,7.353,59.208,59.208,0,0,1,7.223,9.134,56.356,56.356,0,0,1,5.441,11.008,72.717,72.717,0,0,1,3.322,12.521Zm-611.9-74.14H58.8V-27.46H186.187V-3.528l92.507-237.59h36.068l.124.318L409.176.5H372.708l-.12-.329L346.422-71.955H245.347L218.387.5H25.786Zm32.015,1H26.786V-.5H185.008l.179-.46v-25.5H57.8Zm256.279,0h-34.7L186.187-.772V-.5h31.5l26.96-72.455H347.123l.12.329L373.409-.5h34.3Zm371.889-1h33.015V-86.946a101.782,101.782,0,0,0,1.068,15.122,72.724,72.724,0,0,0,3.2,13.147A56.021,56.021,0,0,0,728.576-47.5a49.328,49.328,0,0,0,7.444,9.227,51.3,51.3,0,0,0,9.449,7.227,58.787,58.787,0,0,0,11.34,5.169,76.117,76.117,0,0,0,13.245,3.107,105.481,105.481,0,0,0,15.156,1.037,94.477,94.477,0,0,0,14.341-1.037,68.134,68.134,0,0,0,12.493-3.1A53.281,53.281,0,0,0,822.7-31.036a47.772,47.772,0,0,0,8.827-7.223,48.852,48.852,0,0,0,6.932-9.226,57.945,57.945,0,0,0,4.959-11.182A77.208,77.208,0,0,0,846.4-71.819a109.165,109.165,0,0,0,1-15.127V-241.118h33.015V-86.946a145.1,145.1,0,0,1-1.543,21.717,102.634,102.634,0,0,1-4.636,18.848,78.346,78.346,0,0,1-7.738,15.973,68.661,68.661,0,0,1-10.842,13.08,75.206,75.206,0,0,1-13.7,10.167A86.309,86.309,0,0,1,825.638.1a111.04,111.04,0,0,1-18.915,4.348A152.488,152.488,0,0,1,785.21,5.892a167.805,167.805,0,0,1-22.045-1.384A123.417,123.417,0,0,1,743.656.352a95.656,95.656,0,0,1-16.97-6.935A81.56,81.56,0,0,1,712.264-16.3a64.216,64.216,0,0,1-11.516-12.768A74.038,74.038,0,0,1,692.53-45.11a100.009,100.009,0,0,1-4.922-19.3,146.467,146.467,0,0,1-1.638-22.54Zm32.015,1H686.969V-86.946A145.465,145.465,0,0,0,688.6-64.56a99,99,0,0,0,4.872,19.1,73.027,73.027,0,0,0,8.106,15.825,63.2,63.2,0,0,0,11.337,12.57,80.568,80.568,0,0,0,14.245,9.6A94.667,94.667,0,0,0,743.947-.6,122.4,122.4,0,0,0,763.3,3.517,166.8,166.8,0,0,0,785.21,4.892a151.483,151.483,0,0,0,21.371-1.438A110.061,110.061,0,0,0,825.325-.854a85.306,85.306,0,0,0,16.124-7.171,74.208,74.208,0,0,0,13.515-10.032,67.659,67.659,0,0,0,10.684-12.89,77.339,77.339,0,0,0,7.638-15.769,101.644,101.644,0,0,0,4.589-18.664,144.106,144.106,0,0,0,1.532-21.566V-240.118H848.392V-86.946a110.17,110.17,0,0,1-1.005,15.266,78.244,78.244,0,0,1-3.021,13.323,58.948,58.948,0,0,1-5.046,11.376,49.861,49.861,0,0,1-7.075,9.415,48.772,48.772,0,0,1-9.013,7.374A54.263,54.263,0,0,1,812.38-24.93,69.144,69.144,0,0,1,799.7-21.779a95.471,95.471,0,0,1-14.494,1.048,106.476,106.476,0,0,1-15.3-1.048,77.114,77.114,0,0,1-13.42-3.149,59.807,59.807,0,0,1-11.533-5.257,52.307,52.307,0,0,1-9.633-7.369,50.327,50.327,0,0,1-7.595-9.414,57.02,57.02,0,0,1-5.419-11.379,73.718,73.718,0,0,1-3.245-13.329,102.77,102.77,0,0,1-1.08-15.271Zm212.31-1H965.1l.148.228L1091.717-46.145V-241.118h31.33V.5h-35.819l-.148-.227L961.624-192.452V.5h-31.33Zm34.266,1H931.294V-.5h29.33V-193.6h1.445l.148.227L1087.77-.5h34.277V-240.118h-29.33V-44.995h-1.446l-.148-.228Zm274.922-1h36.068l.124.318L1369.963.5H1333.5l-.12-.329L1307.21-71.955H1206.134L1179.174.5h-33.768l.265-.681Zm35.385,1h-34.7L1146.868-.5h31.61l26.96-72.455h102.472l.12.329L1334.2-.5h34.3ZM295.536-212.136h1.377l40.46,113.221H254.4l.244-.671ZM335.953-99.915,296.222-211.1l-40.4,111.181Zm920.37-112.221h1.377l.119.332L1298.16-98.915h-82.977l.244-.671ZM1296.74-99.915,1257.009-211.1l-40.4,111.181Z" transform="translate(-25.786 246.847)" fill="#fff"/>
</svg>
