<svg xmlns="http://www.w3.org/2000/svg" xmlns:xlink="http://www.w3.org/1999/xlink" version="1.1" width="1000" height="1000" viewBox="0 0 1000 1000" xml:space="preserve">
<desc>Created with Fabric.js 3.5.0</desc>
<defs>
</defs>
<rect x="0" y="0" width="100%" height="100%" fill="#ffffff"/>
<g transform="matrix(0.686 0 0 0.9321 500.0013 523.7767)" id="942640">
<path style="stroke: none; stroke-width: 1; stroke-dasharray: none; stroke-linecap: butt; stroke-dashoffset: 0; stroke-linejoin: miter; stroke-miterlimit: 4; is-custom-font: none; font-file-url: none; fill: rgb(255,255,255); fill-rule: nonzero; opacity: 1;" vector-effect="non-scaling-stroke" transform=" translate(-697.8745, 120.4778)" d="M 534.819 -246.847 a 156.412 156.412 0 0 1 19.06 1.141 a 137.425 137.425 0 0 1 17.969 3.425 a 99.818 99.818 0 0 1 16.512 5.885 a 90.185 90.185 0 0 1 14.657 8.514 a 83.358 83.358 0 0 1 12.629 11.146 a 89.851 89.851 0 0 1 10.421 13.767 a 84.9 84.9 0 0 1 7.84 16.653 a 114.911 114.911 0 0 1 4.866 19.759 l 0.092 0.578 H 605.841 l -0.071 -0.416 a 72.019 72.019 0 0 0 -3.346 -12.759 a 55.356 55.356 0 0 0 -5.343 -10.813 a 58.21 58.21 0 0 0 -7.1 -8.98 a 55.012 55.012 0 0 0 -8.6 -7.222 a 69.837 69.837 0 0 0 -21.248 -9.535 a 98.025 98.025 0 0 0 -25.314 -3.184 a 89.42 89.42 0 0 0 -20.233 2.177 a 65.453 65.453 0 0 0 -17.1 6.521 A 77.975 77.975 0 0 0 483.34 -200.1 a 74.5 74.5 0 0 0 -11.3 12.846 A 94.908 94.908 0 0 0 463.452 -172 a 107.981 107.981 0 0 0 -6 17.275 a 149.6 149.6 0 0 0 -3.527 18.515 a 152.549 152.549 0 0 0 -1.176 18.936 A 125.543 125.543 0 0 0 454.1 -98.857 a 118.541 118.541 0 0 0 4.027 17.66 a 100.5 100.5 0 0 0 6.622 16.263 a 90.047 90.047 0 0 0 9.132 14.243 A 76.994 76.994 0 0 0 485.472 -38.8 A 79.378 79.378 0 0 0 499.5 -29.595 a 68.052 68.052 0 0 0 16.434 5.9 a 87.163 87.163 0 0 0 18.89 1.968 a 99.306 99.306 0 0 0 17.687 -1.508 a 74.836 74.836 0 0 0 15.483 -4.519 a 74.717 74.717 0 0 0 13.265 -7.155 a 66.283 66.283 0 0 0 11 -9.407 a 68.237 68.237 0 0 0 8.656 -11.458 a 72.981 72.981 0 0 0 6.234 -13.3 a 77.047 77.047 0 0 0 3.6 -14.774 a 87.534 87.534 0 0 0 0.772 -15.4 H 534.656 v -27.96 H 641.137 V 0.5 h -21.1 l -8.256 -29.39 a 84.891 84.891 0 0 1 -15.324 15.51 A 78.972 78.972 0 0 1 577.128 -2.4 a 120.691 120.691 0 0 1 -21.066 6.218 a 110.711 110.711 0 0 1 -21.243 2.074 A 127.257 127.257 0 0 1 509.19 3.4 A 102.66 102.66 0 0 1 486.416 -4.1 A 114.549 114.549 0 0 1 466.7 -15.817 a 107.15 107.15 0 0 1 -16.506 -15.194 A 115.986 115.986 0 0 1 437.078 -49.2 a 122.276 122.276 0 0 1 -9.559 -20.726 a 135.7 135.7 0 0 1 -5.835 -22.409 a 138.849 138.849 0 0 1 -1.945 -23.253 a 180.188 180.188 0 0 1 1.816 -25.726 a 165.384 165.384 0 0 1 5.451 -24.465 a 133.118 133.118 0 0 1 9.049 -22.368 a 117.523 117.523 0 0 1 12.607 -19.418 a 103.3 103.3 0 0 1 16.17 -16.128 a 110.3 110.3 0 0 1 19.72 -12.484 a 98.494 98.494 0 0 1 23.329 -8 A 130.293 130.293 0 0 1 534.819 -246.847 Z m 102.872 79.869 a 113.385 113.385 0 0 0 -4.729 -19.008 a 83.9 83.9 0 0 0 -7.746 -16.457 a 88.835 88.835 0 0 0 -10.3 -13.614 a 82.358 82.358 0 0 0 -12.477 -11.012 a 89.191 89.191 0 0 0 -14.494 -8.42 a 98.822 98.822 0 0 0 -16.346 -5.826 a 136.418 136.418 0 0 0 -17.837 -3.4 a 155.379 155.379 0 0 0 -18.937 -1.134 a 129.3 129.3 0 0 0 -26.73 2.643 A 97.5 97.5 0 0 0 485 -235.284 a 109.273 109.273 0 0 0 -19.541 12.37 a 102.3 102.3 0 0 0 -16.013 15.971 a 116.519 116.519 0 0 0 -12.5 19.253 a 132.1 132.1 0 0 0 -8.98 22.2 a 164.358 164.358 0 0 0 -5.418 24.316 a 179.183 179.183 0 0 0 -1.806 25.582 a 137.84 137.84 0 0 0 1.931 23.085 a 134.689 134.689 0 0 0 5.792 22.243 a 121.279 121.279 0 0 0 9.481 20.556 a 114.987 114.987 0 0 0 13 18.035 A 106.156 106.156 0 0 0 467.3 -16.62 A 113.545 113.545 0 0 0 486.84 -5 a 101.647 101.647 0 0 0 22.552 7.419 a 126.252 126.252 0 0 0 25.427 2.475 A 109.7 109.7 0 0 0 555.87 2.837 A 119.68 119.68 0 0 0 576.76 -3.329 A 77.97 77.97 0 0 0 595.847 -14.17 a 84.235 84.235 0 0 0 15.745 -16.123 l 0.607 -0.81 L 620.8 -0.5 h 19.341 V -126.212 H 535.656 v 25.96 h 76.816 l 0.02 0.48 a 88.765 88.765 0 0 1 -0.763 16.056 a 78.047 78.047 0 0 1 -3.646 14.966 a 74 74 0 0 1 -6.32 13.487 a 69.249 69.249 0 0 1 -8.783 11.626 a 67.293 67.293 0 0 1 -11.162 9.549 a 75.707 75.707 0 0 1 -13.443 7.252 a 75.832 75.832 0 0 1 -15.69 4.58 a 100.324 100.324 0 0 1 -17.866 1.525 a 88.156 88.156 0 0 1 -19.107 -1.992 a 69.045 69.045 0 0 1 -16.676 -5.983 a 80.381 80.381 0 0 1 -14.2 -9.326 a 77.988 77.988 0 0 1 -11.744 -12.041 a 91.034 91.034 0 0 1 -9.234 -14.4 A 101.522 101.522 0 0 1 457.169 -80.9 a 119.527 119.527 0 0 1 -4.061 -17.809 a 126.532 126.532 0 0 1 -1.354 -18.566 a 153.581 153.581 0 0 1 1.183 -19.061 a 150.62 150.62 0 0 1 3.55 -18.639 a 109.009 109.009 0 0 1 6.052 -17.436 a 95.914 95.914 0 0 1 8.681 -15.414 a 75.492 75.492 0 0 1 11.45 -13.019 A 78.979 78.979 0 0 1 497 -211.061 a 66.444 66.444 0 0 1 17.36 -6.622 a 90.419 90.419 0 0 1 20.46 -2.2 a 99.022 99.022 0 0 1 25.573 3.218 a 70.829 70.829 0 0 1 21.551 9.674 a 56.011 56.011 0 0 1 8.756 7.353 a 59.208 59.208 0 0 1 7.223 9.134 a 56.356 56.356 0 0 1 5.441 11.008 a 72.717 72.717 0 0 1 3.322 12.521 Z m -611.9 -74.14 H 58.8 V -27.46 H 186.187 V -3.528 l 92.507 -237.59 h 36.068 l 0.124 0.318 L 409.176 0.5 H 372.708 l -0.12 -0.329 L 346.422 -71.955 H 245.347 L 218.387 0.5 H 25.786 Z m 32.015 1 H 26.786 V -0.5 H 185.008 l 0.179 -0.46 v -25.5 H 57.8 Z m 256.279 0 h -34.7 L 186.187 -0.772 V -0.5 h 31.5 l 26.96 -72.455 H 347.123 l 0.12 0.329 L 373.409 -0.5 h 34.3 Z m 371.889 -1 h 33.015 V -86.946 a 101.782 101.782 0 0 0 1.068 15.122 a 72.724 72.724 0 0 0 3.2 13.147 A 56.021 56.021 0 0 0 728.576 -47.5 a 49.328 49.328 0 0 0 7.444 9.227 a 51.3 51.3 0 0 0 9.449 7.227 a 58.787 58.787 0 0 0 11.34 5.169 a 76.117 76.117 0 0 0 13.245 3.107 a 105.481 105.481 0 0 0 15.156 1.037 a 94.477 94.477 0 0 0 14.341 -1.037 a 68.134 68.134 0 0 0 12.493 -3.1 A 53.281 53.281 0 0 0 822.7 -31.036 a 47.772 47.772 0 0 0 8.827 -7.223 a 48.852 48.852 0 0 0 6.932 -9.226 a 57.945 57.945 0 0 0 4.959 -11.182 A 77.208 77.208 0 0 0 846.4 -71.819 a 109.165 109.165 0 0 0 1 -15.127 V -241.118 h 33.015 V -86.946 a 145.1 145.1 0 0 1 -1.543 21.717 a 102.634 102.634 0 0 1 -4.636 18.848 a 78.346 78.346 0 0 1 -7.738 15.973 a 68.661 68.661 0 0 1 -10.842 13.08 a 75.206 75.206 0 0 1 -13.7 10.167 A 86.309 86.309 0 0 1 825.638 0.1 a 111.04 111.04 0 0 1 -18.915 4.348 A 152.488 152.488 0 0 1 785.21 5.892 a 167.805 167.805 0 0 1 -22.045 -1.384 A 123.417 123.417 0 0 1 743.656 0.352 a 95.656 95.656 0 0 1 -16.97 -6.935 A 81.56 81.56 0 0 1 712.264 -16.3 a 64.216 64.216 0 0 1 -11.516 -12.768 A 74.038 74.038 0 0 1 692.53 -45.11 a 100.009 100.009 0 0 1 -4.922 -19.3 a 146.467 146.467 0 0 1 -1.638 -22.54 Z m 32.015 1 H 686.969 V -86.946 A 145.465 145.465 0 0 0 688.6 -64.56 a 99 99 0 0 0 4.872 19.1 a 73.027 73.027 0 0 0 8.106 15.825 a 63.2 63.2 0 0 0 11.337 12.57 a 80.568 80.568 0 0 0 14.245 9.6 A 94.667 94.667 0 0 0 743.947 -0.6 A 122.4 122.4 0 0 0 763.3 3.517 A 166.8 166.8 0 0 0 785.21 4.892 a 151.483 151.483 0 0 0 21.371 -1.438 A 110.061 110.061 0 0 0 825.325 -0.854 a 85.306 85.306 0 0 0 16.124 -7.171 a 74.208 74.208 0 0 0 13.515 -10.032 a 67.659 67.659 0 0 0 10.684 -12.89 a 77.339 77.339 0 0 0 7.638 -15.769 a 101.644 101.644 0 0 0 4.589 -18.664 a 144.106 144.106 0 0 0 1.532 -21.566 V -240.118 H 848.392 V -86.946 a 110.17 110.17 0 0 1 -1.005 15.266 a 78.244 78.244 0 0 1 -3.021 13.323 a 58.948 58.948 0 0 1 -5.046 11.376 a 49.861 49.861 0 0 1 -7.075 9.415 a 48.772 48.772 0 0 1 -9.013 7.374 A 54.263 54.263 0 0 1 812.38 -24.93 A 69.144 69.144 0 0 1 799.7 -21.779 a 95.471 95.471 0 0 1 -14.494 1.048 a 106.476 106.476 0 0 1 -15.3 -1.048 a 77.114 77.114 0 0 1 -13.42 -3.149 a 59.807 59.807 0 0 1 -11.533 -5.257 a 52.307 52.307 0 0 1 -9.633 -7.369 a 50.327 50.327 0 0 1 -7.595 -9.414 a 57.02 57.02 0 0 1 -5.419 -11.379 a 73.718 73.718 0 0 1 -3.245 -13.329 a 102.77 102.77 0 0 1 -1.08 -15.271 Z m 212.31 -1 H 965.1 l 0.148 0.228 L 1091.717 -46.145 V -241.118 h 31.33 V 0.5 h -35.819 l -0.148 -0.227 L 961.624 -192.452 V 0.5 h -31.33 Z m 34.266 1 H 931.294 V -0.5 h 29.33 V -193.6 h 1.445 l 0.148 0.227 L 1087.77 -0.5 h 34.277 V -240.118 h -29.33 V -44.995 h -1.446 l -0.148 -0.228 Z m 274.922 -1 h 36.068 l 0.124 0.318 L 1369.963 0.5 H 1333.5 l -0.12 -0.329 L 1307.21 -71.955 H 1206.134 L 1179.174 0.5 h -33.768 l 0.265 -0.681 Z m 35.385 1 h -34.7 L 1146.868 -0.5 h 31.61 l 26.96 -72.455 h 102.472 l 0.12 0.329 L 1334.2 -0.5 h 34.3 Z M 295.536 -212.136 h 1.377 l 40.46 113.221 H 254.4 l 0.244 -0.671 Z M 335.953 -99.915 L 296.222 -211.1 l -40.4 111.181 Z m 920.37 -112.221 h 1.377 l 0.119 0.332 L 1298.16 -98.915 h -82.977 l 0.244 -0.671 Z M 1296.74 -99.915 L 1257.009 -211.1 l -40.4 111.181 Z" stroke-linecap="round"/>
</g>
</svg>